<?xml version="1.0" encoding="utf-8"?>
<!-- Generator: Adobe Illustrator 22.1.0, SVG Export Plug-In . SVG Version: 6.00 Build 0)  -->
<svg version="1.1" id="Layer_1" xmlns="http://www.w3.org/2000/svg" xmlns:xlink="http://www.w3.org/1999/xlink" x="0px" y="0px"
	 viewBox="0 0 150 100" style="enable-background:new 0 0 150 100;" xml:space="preserve">
<style type="text/css">
	.st0{fill:#2CA9E1;}
	.st1{enable-background:new    ;}
	.st2{fill:#FFFFFF;}
</style>
<title>tile-saas</title>
<path id="Icon_cloud" class="st0" d="M110.3,78H38.2c-7.7,0-13.9-6.2-13.9-13.9c0-7.7,6.2-13.9,13.9-13.9c0.3,0,0.6,0,0.9,0
	c0.3-10.9,9.3-19.5,20.2-19.3c2.4,0.1,4.8,0.6,7.1,1.5c4.2-11.7,17.2-17.8,28.9-13.6c9,3.2,14.9,11.8,14.9,21.3
	c0,0.8-0.1,1.7-0.1,2.5h0.3c9.8,0,17.7,7.9,17.7,17.7C128,70.1,120.1,78,110.3,78L110.3,78z"/>
<g class="st1">
	<path class="st2" d="M62.2,54.7c-0.2-0.5-0.6-1-1-1.3c-0.3-0.3-1-0.6-1.9-0.6c-1.7,0-2.9,1.1-2.9,2.7c0,0.7,0.2,1.1,0.6,1.5
		c0.5,0.5,1.2,0.8,1.8,1.1l1.7,0.7c1,0.4,1.9,0.9,2.7,1.6c0.9,0.9,1.2,1.9,1.2,3.1c0,3.2-2.4,5.3-5.5,5.3c-1.1,0-2.6-0.2-3.7-1.4
		c-0.9-0.8-1.4-2-1.6-3l1.9-0.5c0.1,0.9,0.5,1.7,1,2.2c0.7,0.7,1.6,1,2.5,1c2.4,0,3.5-1.7,3.5-3.4c0-0.8-0.2-1.4-0.9-2
		c-0.5-0.5-1.2-0.8-2.1-1.2L58,59.7c-0.7-0.3-1.5-0.7-2.3-1.4c-0.7-0.7-1.2-1.5-1.2-2.8c0-2.7,2-4.4,4.8-4.4c1.1,0,1.9,0.2,2.8,0.8
		c0.7,0.5,1.3,1.2,1.7,1.9L62.2,54.7z"/>
	<path class="st2" d="M75.7,57.8h1.9v10.7h-1.9V67c-0.6,0.8-1.8,1.8-3.7,1.8c-2.7,0-5.2-1.9-5.2-5.7c0-3.7,2.5-5.6,5.2-5.6
		c2.1,0,3.2,1.1,3.7,1.8V57.8z M68.7,63.2c0,2.3,1.3,4,3.5,4c2.3,0,3.6-1.9,3.6-4c0-2.8-1.9-4-3.6-4C70.4,59.2,68.7,60.6,68.7,63.2z
		"/>
	<path class="st2" d="M89.3,57.8h1.9v10.7h-1.9V67c-0.6,0.8-1.8,1.8-3.7,1.8c-2.7,0-5.2-1.9-5.2-5.7c0-3.7,2.5-5.6,5.2-5.6
		c2.1,0,3.2,1.1,3.7,1.8V57.8z M82.3,63.2c0,2.3,1.3,4,3.5,4c2.3,0,3.6-1.9,3.6-4c0-2.8-1.9-4-3.6-4C84,59.2,82.3,60.6,82.3,63.2z"
		/>
	<path class="st2" d="M102.8,54.7c-0.2-0.5-0.6-1-1-1.3c-0.3-0.3-1-0.6-1.9-0.6c-1.7,0-2.9,1.1-2.9,2.7c0,0.7,0.2,1.1,0.6,1.5
		c0.5,0.5,1.2,0.8,1.8,1.1l1.7,0.7c1,0.4,1.9,0.9,2.7,1.6c0.9,0.9,1.2,1.9,1.2,3.1c0,3.2-2.4,5.3-5.5,5.3c-1.1,0-2.6-0.2-3.7-1.4
		c-0.9-0.8-1.4-2-1.6-3l1.9-0.5c0.1,0.9,0.5,1.7,1,2.2c0.7,0.7,1.6,1,2.5,1c2.4,0,3.5-1.7,3.5-3.4c0-0.8-0.2-1.4-0.9-2
		c-0.5-0.5-1.2-0.8-2.1-1.2l-1.6-0.7c-0.7-0.3-1.5-0.7-2.3-1.4c-0.7-0.7-1.2-1.5-1.2-2.8c0-2.7,2-4.4,4.8-4.4c1.1,0,1.9,0.2,2.8,0.8
		c0.7,0.5,1.3,1.2,1.7,1.9L102.8,54.7z"/>
</g>
<g id="gears">
	<g id="Icon_big">
		<path class="st2" d="M91.3,43l0.7-0.3l0,0c0-0.1,0-0.2,0-0.3s0-0.2,0-0.3l0,0l-0.8-0.1c-0.1-0.2-0.1-0.3-0.2-0.4l0.4-0.7l0,0
			c-0.1-0.2-0.3-0.3-0.4-0.5l0,0l-0.7,0.3c-0.1-0.1-0.3-0.2-0.4-0.2v-0.8l0,0c-0.2-0.1-0.4-0.1-0.6-0.1l0,0l-0.4,0.7h-0.2
			c-0.1,0-0.2,0-0.2,0l-0.5-0.6l0,0c-0.2,0.1-0.4,0.2-0.6,0.3l0,0l0.1,0.8c-0.1,0.1-0.3,0.2-0.4,0.3L86,40.7l0,0
			c-0.1,0.2-0.2,0.4-0.3,0.6l0,0l0.5,0.6c-0.1,0.2-0.1,0.3-0.1,0.5l-0.7,0.3l0,0c0,0.1,0,0.2,0,0.3c0,0.1,0,0.2,0,0.3l0,0l0.8,0.1
			c0.1,0.2,0.1,0.3,0.2,0.4L86,44.5l0,0c0.1,0.2,0.3,0.3,0.4,0.5l0,0l0.7-0.3c0.1,0.1,0.3,0.2,0.4,0.2l0.1,0.8l0,0
			c0.2,0.1,0.4,0.1,0.6,0.1l0,0l0.4-0.7H89h0.2l0.5,0.6l0,0c0.2-0.1,0.4-0.2,0.6-0.3l0,0l-0.1-0.8c0.1-0.1,0.3-0.2,0.4-0.3l0.8,0.2
			l0,0c0.1-0.2,0.2-0.4,0.3-0.6l0,0l-0.5-0.6C91.2,43.3,91.2,43.1,91.3,43z M90.5,43.1c-0.2,1-1.2,1.7-2.2,1.4s-1.7-1.2-1.4-2.2
			c0.2-1,1.2-1.7,2.2-1.4C90.1,41.1,90.7,42.1,90.5,43.1z M89,41.2c-0.8-0.2-1.6,0.4-1.8,1.2c-0.2,0.8,0.4,1.6,1.2,1.8
			c0.8,0.2,1.6-0.4,1.8-1.2C90.4,42.2,89.8,41.4,89,41.2z M89.6,42.9c-0.1,0.5-0.6,0.8-1.1,0.7c-0.5-0.1-0.8-0.6-0.7-1.1
			c0.1-0.5,0.6-0.8,1.1-0.7C89.4,41.9,89.7,42.4,89.6,42.9C89.6,42.9,89.6,42.9,89.6,42.9L89.6,42.9z M77.9,40.1
			c-1.8,0-3.3,1.5-3.3,3.3s1.5,3.3,3.3,3.3c1.8,0,3.3-1.5,3.3-3.3c0,0,0,0,0,0C81.2,41.6,79.7,40.1,77.9,40.1L77.9,40.1z M77.9,45.4
			c-1.1,0-2-0.9-2-2s0.9-2,2-2s2,0.9,2,2C79.9,44.5,79,45.4,77.9,45.4C77.9,45.4,77.9,45.4,77.9,45.4L77.9,45.4z M84.9,41.9
			L84.9,41.9c-0.1-0.3-0.1-0.5-0.2-0.8c-0.1-0.2-0.2-0.4-0.2-0.6v-0.1l-1.7,0c-0.2-0.3-0.4-0.6-0.6-0.8l0.6-1.6L82.6,38
			c-0.3-0.3-0.7-0.6-1.1-0.8h-0.1l-1.3,1c-0.3-0.1-0.7-0.2-1-0.3l-0.5-1.6h-0.1c-0.5,0-0.9,0-1.4,0h-0.1l-0.5,1.6L76.1,38
			c-0.2,0.1-0.3,0.1-0.5,0.2l-1.3-1h-0.1c-0.4,0.2-0.8,0.5-1.1,0.8l-0.1,0.1l0.6,1.6c-0.2,0.3-0.4,0.5-0.6,0.8l-1.7,0v0.1
			c-0.2,0.4-0.3,0.9-0.4,1.3v0.1l1.4,0.9c0,0.3,0,0.7,0,1l-1.4,0.9v0.1c0,0.2,0.1,0.4,0.2,0.7c0.1,0.2,0.2,0.4,0.2,0.6v0.1H73
			c0.2,0.3,0.4,0.6,0.6,0.8l-0.6,1.6l0.1,0.1c0.3,0.3,0.7,0.6,1.1,0.8h0.1l1.3-1c0.3,0.1,0.7,0.2,1,0.3l0.5,1.6h0.1
			c0.5,0.1,0.9,0.1,1.4,0h0.1l0.5-1.6c0.2,0,0.3-0.1,0.5-0.1c0.2-0.1,0.3-0.1,0.5-0.2l1.3,1h0.1c0.4-0.2,0.8-0.5,1.1-0.8l0.1,0
			l-0.6-1.6c0.2-0.3,0.4-0.5,0.6-0.8h1.7v-0.1c0.2-0.4,0.3-0.9,0.4-1.3v-0.1l-1.4-0.9c0-0.3,0-0.7,0-1L84.9,41.9z M77.9,47.4
			c-2.2,0-4-1.8-4-4s1.8-4,4-4s4,1.8,4,4C81.9,45.6,80.1,47.4,77.9,47.4C77.9,47.4,77.9,47.4,77.9,47.4L77.9,47.4z"/>
	</g>
</g>
</svg>
